# xmcd CD database file
#
# Track frame offsets:
#	150
#	20510
#	38343
#	66450
#	84800
#	103505
#	120163
#	138455
#	157653
#	178150
#
# Disc length: 2673 seconds
#
# Revision: 1
# Processed by: cddbd v1.4PL0 Copyright (c) Steve Scherf et al.
# Submitted via: CDex 1.50beta10
#
DISCID=6e0a6f0a
DTITLE=Lil' Ed And The Blues Imperials - Roughhousin'
DYEAR=1986
DGENRE=Blues
TTITLE0=Old Oak Tree
TTITLE1=Midnight Rider
TTITLE2=You Done Me Wrong For The Last Time
TTITLE3=She's Fine, She's Mine
TTITLE4=Everything I Do Brings Me Closer To The Blues
TTITLE5=Pride And Joy
TTITLE6=You Don't Exist Anymore
TTITLE7=Mean Old Frisco
TTITLE8=Car Wash Blues
TTITLE9=Walking The Dog
EXTD=YEAR: 1986
EXTT0=
EXTT1=
EXTT2=
EXTT3=
EXTT4=
EXTT5=
EXTT6=
EXTT7=
EXTT8=
EXTT9=
PLAYORDER=
